Input #0, mov,mp4,m4a,3gp,3g2,mj2, from '/home/hbattu/projects/huberman-gpt/huberman-audio/mp3/tmpgo0c51lx.mp4':
  Metadata:
    major_brand     : dash
    minor_version   : 0
    compatible_brands: iso6mp41
    creation_time   : 2023-01-17T05:15:38.000000Z
  Duration: 03:00:38.38, start: 0.000000, bitrate: 129 kb/s
    Stream #0:0(eng): Audio: aac (LC) (mp4a / 0x6134706D), 44100 Hz, stereo, fltp, 0 kb/s (default)
    Metadata:
      creation_time   : 2023-01-17T05:15:38.000000Z
      handler_name    : ISO Media file produced by Google Inc.
Stream mapping:
  Stream #0:0 -> #0:0 (aac (native) -> mp3 (libmp3lame))
Press [q] to stop, [?] for help
[graph_0_in_0_0 @ 0x55adea2f9f00] tb:1/44100 samplefmt:fltp samplerate:44100 chlayout:0x3
Output #0, mp3, to '../huberman-audio/mp3/ycOBZZeVeAc.mp3':
  Metadata:
    major_brand     : dash
    minor_version   : 0
    compatible_brands: iso6mp41
    TSSE            : Lavf58.29.100
    Stream #0:0(eng): Audio: mp3 (libmp3lame), 44100 Hz, stereo, fltp, delay 1105 (default)
    Metadata:
      creation_time   : 2023-01-17T05:15:38.000000Z
      handler_name    : ISO Media file produced by Google Inc.
      encoder         : Lavc58.54.100 libmp3lame
No more output streams to write to, finishing.
size=  169351kB time=03:00:38.38 bitrate= 128.0kbits/s speed=90.1x    
[AVIOContext @ 0x55adea1e1900] Statistics: 0 seeks, 241 writeouts
video:0kB audio:169350kB subtitle:0kB other streams:0kB global headers:0kB muxing overhead: 0.000200%
Input file #0 (/home/hbattu/projects/huberman-gpt/huberman-audio/mp3/tmpgo0c51lx.mp4):
  Input stream #0:0 (audio): 466770 packets read (173414051 bytes); 466770 frames decoded (477972480 samples); 
  Total: 466770 packets (173414051 bytes) demuxed
Output file #0 (../huberman-audio/mp3/ycOBZZeVeAc.mp3):
  Output stream #0:0 (audio): 414907 frames encoded (477972480 samples); 414908 packets muxed (173414609 bytes); 
  Total: 414908 packets (173414609 bytes) muxed
[AVIOContext @ 0x55adea212800] Statistics: 2 seeks, 663 writeouts
[AVIOContext @ 0x55adea1ea880] Statistics: 175407771 bytes read, 0 seeks
